<?xml version="1.0" encoding="UTF-8" standalone="no"?><svg xmlns="http://www.w3.org/2000/svg" xmlns:xlink="http://www.w3.org/1999/xlink" contentStyleType="text/css" height="496px" preserveAspectRatio="none" style="width:753px;height:496px;background:#FFFFFF;" version="1.1" viewBox="0 0 753 496" width="753px" zoomAndPan="magnify"><defs/><g><!--MD5=[0e005bfa9b2efe07274e728514cf4c87]
class Gioco--><g id="elem_Gioco"><rect codeLine="1" fill="#F1F1F1" height="210.9688" id="Gioco" rx="2.5" ry="2.5" style="stroke:#181818;stroke-width:0.5;" width="285" x="292" y="7"/><ellipse cx="410.25" cy="23" fill="#ADD1B2" rx="11" ry="11" style="stroke:#181818;stroke-width:1.0;"/><path d="M413.2188,28.6406 Q412.6406,28.9375 412,29.0781 Q411.3594,29.2344 410.6563,29.2344 Q408.1563,29.2344 406.8281,27.5938 Q405.5156,25.9375 405.5156,22.8125 Q405.5156,19.6875 406.8281,18.0313 Q408.1563,16.375 410.6563,16.375 Q411.3594,16.375 412,16.5313 Q412.6563,16.6875 413.2188,16.9844 L413.2188,19.7031 Q412.5938,19.125 412,18.8594 Q411.4063,18.5781 410.7813,18.5781 Q409.4375,18.5781 408.75,19.6563 Q408.0625,20.7188 408.0625,22.8125 Q408.0625,24.9063 408.75,25.9844 Q409.4375,27.0469 410.7813,27.0469 Q411.4063,27.0469 412,26.7813 Q412.5938,26.5 413.2188,25.9219 L413.2188,28.6406 Z " fill="#000000"/><text fill="#000000" font-family="sans-serif" font-size="14" lengthAdjust="spacing" textLength="40" x="430.75" y="27.8467">Gioco</text><line style="stroke:#181818;stroke-width:0.5;" x1="293" x2="576" y1="39" y2="39"/><polygon fill="none" points="303,47.6484,307,51.6484,303,55.6484,299,51.6484" style="stroke:#B38D22;stroke-width:1.0;"/><text fill="#000000" font-family="sans-serif" font-size="14" lengthAdjust="spacing" textLength="88" x="312" y="55.9951">nome: string</text><polygon fill="none" points="303,63.9453,307,67.9453,303,71.9453,299,67.9453" style="stroke:#B38D22;stroke-width:1.0;"/><text fill="#000000" font-family="sans-serif" font-size="14" lengthAdjust="spacing" textLength="106" x="312" y="72.292">partite[]: Partita</text><polygon fill="none" points="303,80.2422,307,84.2422,303,88.2422,299,84.2422" style="stroke:#B38D22;stroke-width:1.0;"/><text fill="#000000" font-family="sans-serif" font-size="14" lengthAdjust="spacing" textLength="151" x="312" y="88.5889">giocatore[]: Giocatore</text><line style="stroke:#181818;stroke-width:1.0;" x1="293" x2="576" y1="95.8906" y2="95.8906"/><text fill="#000000" font-family="sans-serif" font-size="14" lengthAdjust="spacing" textLength="130" x="298" y="112.8857">constructor(nome)</text><text fill="#000000" font-family="sans-serif" font-size="14" lengthAdjust="spacing" textLength="253" x="298" y="129.1826">creaGiocatore(username): Giocatore</text><text fill="#000000" font-family="sans-serif" font-size="14" lengthAdjust="spacing" textLength="273" x="298" y="145.4795">creaPartita(Giocatore,Giocatore): Partita</text><text fill="#000000" font-family="sans-serif" font-size="14" lengthAdjust="spacing" textLength="122" x="298" y="161.7764">getNome(): string</text><text fill="#000000" font-family="sans-serif" font-size="14" lengthAdjust="spacing" textLength="180" x="298" y="178.0732">getGiocatori(): Giocatore[]</text><text fill="#000000" font-family="sans-serif" font-size="14" lengthAdjust="spacing" textLength="139" x="298" y="194.3701">getPartite(): Partita[]</text><text fill="#000000" font-family="sans-serif" font-size="14" lengthAdjust="spacing" textLength="127" x="298" y="210.667">giocaPartita(): void</text></g><!--MD5=[42ec1fe01e3319d15806a8e095a41a0d]
class Partita--><g id="elem_Partita"><rect codeLine="18" fill="#F1F1F1" height="194.6719" id="Partita" rx="2.5" ry="2.5" style="stroke:#181818;stroke-width:0.5;" width="447" x="9" y="295"/><ellipse cx="206.75" cy="311" fill="#ADD1B2" rx="11" ry="11" style="stroke:#181818;stroke-width:1.0;"/><path d="M209.7188,316.6406 Q209.1406,316.9375 208.5,317.0781 Q207.8594,317.2344 207.1563,317.2344 Q204.6563,317.2344 203.3281,315.5938 Q202.0156,313.9375 202.0156,310.8125 Q202.0156,307.6875 203.3281,306.0313 Q204.6563,304.375 207.1563,304.375 Q207.8594,304.375 208.5,304.5313 Q209.1563,304.6875 209.7188,304.9844 L209.7188,307.7031 Q209.0938,307.125 208.5,306.8594 Q207.9063,306.5781 207.2813,306.5781 Q205.9375,306.5781 205.25,307.6563 Q204.5625,308.7188 204.5625,310.8125 Q204.5625,312.9063 205.25,313.9844 Q205.9375,315.0469 207.2813,315.0469 Q207.9063,315.0469 208.5,314.7813 Q209.0938,314.5 209.7188,313.9219 L209.7188,316.6406 Z " fill="#000000"/><text fill="#000000" font-family="sans-serif" font-size="14" lengthAdjust="spacing" textLength="43" x="227.25" y="315.8467">Partita</text><line style="stroke:#181818;stroke-width:0.5;" x1="10" x2="455" y1="327" y2="327"/><polygon fill="none" points="20,335.6484,24,339.6484,20,343.6484,16,339.6484" style="stroke:#B38D22;stroke-width:1.0;"/><text fill="#000000" font-family="sans-serif" font-size="14" lengthAdjust="spacing" textLength="205" x="29" y="343.9951">id: int ' generato casualmente</text><polygon fill="none" points="20,351.9453,24,355.9453,20,359.9453,16,355.9453" style="stroke:#B38D22;stroke-width:1.0;"/><text fill="#000000" font-family="sans-serif" font-size="14" lengthAdjust="spacing" textLength="260" x="29" y="360.292">stato: bool ' true=in corso false=finita</text><polygon fill="none" points="20,368.2422,24,372.2422,20,376.2422,16,372.2422" style="stroke:#B38D22;stroke-width:1.0;"/><text fill="#000000" font-family="sans-serif" font-size="14" lengthAdjust="spacing" textLength="421" x="29" y="376.5889">turno: bool ' true=giocatore1=rosso false=giocatore2=giallo</text><polygon fill="none" points="20,384.5391,24,388.5391,20,392.5391,16,388.5391" style="stroke:#B38D22;stroke-width:1.0;"/><text fill="#000000" font-family="sans-serif" font-size="14" lengthAdjust="spacing" textLength="300" x="29" y="392.8857">matrice: int[][] ' 0=vuoto, 1=rosso, 2=giallo</text><polygon fill="none" points="20,400.8359,24,404.8359,20,408.8359,16,404.8359" style="stroke:#B38D22;stroke-width:1.0;"/><text fill="#000000" font-family="sans-serif" font-size="14" lengthAdjust="spacing" textLength="150" x="29" y="409.1826">giocatore1: Giocatore</text><polygon fill="none" points="20,417.1328,24,421.1328,20,425.1328,16,421.1328" style="stroke:#B38D22;stroke-width:1.0;"/><text fill="#000000" font-family="sans-serif" font-size="14" lengthAdjust="spacing" textLength="150" x="29" y="425.4795">giocatore2: Giocatore</text><line style="stroke:#181818;stroke-width:1.0;" x1="10" x2="455" y1="432.7813" y2="432.7813"/><text fill="#000000" font-family="sans-serif" font-size="14" lengthAdjust="spacing" textLength="228" x="15" y="449.7764">constructor(Giocatore,Giocatore)</text><text fill="#000000" font-family="sans-serif" font-size="14" lengthAdjust="spacing" textLength="217" x="15" y="466.0732">inserisciPedina(Giocatore): void</text><text fill="#000000" font-family="sans-serif" font-size="14" lengthAdjust="spacing" textLength="155" x="15" y="482.3701">controllaVittoria(): bool</text></g><!--MD5=[5a1819b2b4926284c02cc936e46baac3]
class Giocatore--><g id="elem_Giocatore"><rect codeLine="30" fill="#F1F1F1" height="113.1875" id="Giocatore" rx="2.5" ry="2.5" style="stroke:#181818;stroke-width:0.5;" width="219" x="527" y="336"/><ellipse cx="598.75" cy="352" fill="#ADD1B2" rx="11" ry="11" style="stroke:#181818;stroke-width:1.0;"/><path d="M601.7188,357.6406 Q601.1406,357.9375 600.5,358.0781 Q599.8594,358.2344 599.1563,358.2344 Q596.6563,358.2344 595.3281,356.5938 Q594.0156,354.9375 594.0156,351.8125 Q594.0156,348.6875 595.3281,347.0313 Q596.6563,345.375 599.1563,345.375 Q599.8594,345.375 600.5,345.5313 Q601.1563,345.6875 601.7188,345.9844 L601.7188,348.7031 Q601.0938,348.125 600.5,347.8594 Q599.9063,347.5781 599.2813,347.5781 Q597.9375,347.5781 597.25,348.6563 Q596.5625,349.7188 596.5625,351.8125 Q596.5625,353.9063 597.25,354.9844 Q597.9375,356.0469 599.2813,356.0469 Q599.9063,356.0469 600.5,355.7813 Q601.0938,355.5 601.7188,354.9219 L601.7188,357.6406 Z " fill="#000000"/><text fill="#000000" font-family="sans-serif" font-size="14" lengthAdjust="spacing" textLength="67" x="619.25" y="356.8467">Giocatore</text><line style="stroke:#181818;stroke-width:0.5;" x1="528" x2="745" y1="368" y2="368"/><polygon fill="none" points="538,376.6484,542,380.6484,538,384.6484,534,380.6484" style="stroke:#B38D22;stroke-width:1.0;"/><text fill="#000000" font-family="sans-serif" font-size="14" lengthAdjust="spacing" textLength="122" x="547" y="384.9951">username : string</text><line style="stroke:#181818;stroke-width:1.0;" x1="528" x2="745" y1="392.2969" y2="392.2969"/><text fill="#000000" font-family="sans-serif" font-size="14" lengthAdjust="spacing" textLength="160" x="533" y="409.292">constructor(username)</text><text fill="#000000" font-family="sans-serif" font-size="14" lengthAdjust="spacing" textLength="152" x="533" y="425.5889">getUsername(): string</text><text fill="#000000" font-family="sans-serif" font-size="14" lengthAdjust="spacing" textLength="207" x="533" y="441.8857">inserisciPedina(colonna): bool</text></g><!--MD5=[74b30a0c38ff203e2994f5b67a6e784c]
link Gioco to Partita--><g id="link_Gioco_Partita"><path codeLine="38" d="M358.42,218.2 C340.19,243.29 320.81,269.97 302.85,294.68 " fill="none" id="Gioco-Partita" style="stroke:#181818;stroke-width:1.0;"/><text fill="#000000" font-family="sans-serif" font-size="13" lengthAdjust="spacing" textLength="16" x="334.5" y="261.0669">ha</text><text fill="#000000" font-family="sans-serif" font-size="13" lengthAdjust="spacing" textLength="21" x="331.6029" y="237.878">1-1</text><text fill="#000000" font-family="sans-serif" font-size="13" lengthAdjust="spacing" textLength="23" x="284.1718" y="284.0294">0-N</text></g><!--MD5=[3743be02635dfafa64ffcbcacd413f63]
link Gioco to Giocatore--><g id="link_Gioco_Giocatore"><path codeLine="39" d="M510.58,218.2 C539.66,258.22 571.67,302.28 596.15,335.97 " fill="none" id="Gioco-Giocatore" style="stroke:#181818;stroke-width:1.0;"/><text fill="#000000" font-family="sans-serif" font-size="13" lengthAdjust="spacing" textLength="16" x="542.5" y="261.0669">ha</text><text fill="#000000" font-family="sans-serif" font-size="13" lengthAdjust="spacing" textLength="21" x="493.9862" y="237.878">1-1</text><text fill="#000000" font-family="sans-serif" font-size="13" lengthAdjust="spacing" textLength="23" x="566.5067" y="324.8295">0-N</text></g><!--MD5=[c47909081e4a98a95a6495223a60cc77]
link Partita to Giocatore--><g id="link_Partita_Giocatore"><path codeLine="40" d="M456.06,392.5 C480.49,392.5 504.49,392.5 526.61,392.5 " fill="none" id="Partita-Giocatore" style="stroke:#181818;stroke-width:1.0;"/><text fill="#000000" font-family="sans-serif" font-size="13" lengthAdjust="spacing" textLength="34" x="474.5" y="385.5669">gioca</text><text fill="#000000" font-family="sans-serif" font-size="13" lengthAdjust="spacing" textLength="23" x="463.7729" y="404.8206">0-N</text><text fill="#000000" font-family="sans-serif" font-size="13" lengthAdjust="spacing" textLength="21" x="497.8975" y="405.0456">2-2</text></g><!--MD5=[a1e7392a9971fe303276fac1291a1ac9]
@startuml
class Gioco{
  #nome: string
  #partite[]: Partita
  #giocatore[]: Giocatore
  - -
  ' costruttore
  constructor(nome)
  ' set
  creaGiocatore(username): Giocatore
  creaPartita(Giocatore,Giocatore): Partita
  ' get
  getNome(): string
  getGiocatori(): Giocatore[]
  getPartite(): Partita[]
  ' altri metodi
  giocaPartita(): void
}
class Partita{
  #id: int ' generato casualmente
  #stato: bool ' true=in corso false=finita
  #turno: bool ' true=giocatore1=rosso false=giocatore2=giallo
  #matrice: int[][] ' 0=vuoto, 1=rosso, 2=giallo
  #giocatore1: Giocatore
  #giocatore2: Giocatore
  - -
  constructor(Giocatore,Giocatore)
  inserisciPedina(Giocatore): void
  controllaVittoria(): bool
}
class Giocatore{
  #username : string
  - -
  constructor(username)
  getUsername(): string
  inserisciPedina(colonna): bool
}

Gioco "1-1"-down-"0-N"  Partita : ha
Gioco "1-1"- -"0-N"  Giocatore : ha
Giocatore "2-2"-left-"0-N"  Partita : gioca
@enduml

@startuml
class Gioco{
  #nome: string
  #partite[]: Partita
  #giocatore[]: Giocatore
  - -
  constructor(nome)
  creaGiocatore(username): Giocatore
  creaPartita(Giocatore,Giocatore): Partita
  getNome(): string
  getGiocatori(): Giocatore[]
  getPartite(): Partita[]
  giocaPartita(): void
}
class Partita{
  #id: int ' generato casualmente
  #stato: bool ' true=in corso false=finita
  #turno: bool ' true=giocatore1=rosso false=giocatore2=giallo
  #matrice: int[][] ' 0=vuoto, 1=rosso, 2=giallo
  #giocatore1: Giocatore
  #giocatore2: Giocatore
  - -
  constructor(Giocatore,Giocatore)
  inserisciPedina(Giocatore): void
  controllaVittoria(): bool
}
class Giocatore{
  #username : string
  - -
  constructor(username)
  getUsername(): string
  inserisciPedina(colonna): bool
}

Gioco "1-1"-down-"0-N"  Partita : ha
Gioco "1-1"- -"0-N"  Giocatore : ha
Giocatore "2-2"-left-"0-N"  Partita : gioca
@enduml

PlantUML version 1.2022.7(Mon Aug 22 17:01:30 UTC 2022)
(GPL source distribution)
Java Runtime: OpenJDK Runtime Environment
JVM: OpenJDK 64-Bit Server VM
Default Encoding: UTF-8
Language: en
Country: null
--></g></svg>