<?xml version="1.0" encoding="UTF-8" standalone="no"?><svg xmlns="http://www.w3.org/2000/svg" xmlns:xlink="http://www.w3.org/1999/xlink" contentStyleType="text/css" height="539px" preserveAspectRatio="none" style="width:510px;height:539px;background:#FFFFFF;" version="1.1" viewBox="0 0 510 539" width="510px" zoomAndPan="magnify"><defs/><g><!--MD5=[70acab540a3ad58b5c7862b8bcd4458a]
class Negozio--><g id="elem_Negozio"><rect codeLine="1" fill="#F1F1F1" height="178.375" id="Negozio" rx="2.5" ry="2.5" style="stroke:#181818;stroke-width:0.5;" width="223" x="280" y="7"/><ellipse cx="358.75" cy="23" fill="#ADD1B2" rx="11" ry="11" style="stroke:#181818;stroke-width:1.0;"/><path d="M361.7188,28.6406 Q361.1406,28.9375 360.5,29.0781 Q359.8594,29.2344 359.1563,29.2344 Q356.6563,29.2344 355.3281,27.5938 Q354.0156,25.9375 354.0156,22.8125 Q354.0156,19.6875 355.3281,18.0313 Q356.6563,16.375 359.1563,16.375 Q359.8594,16.375 360.5,16.5313 Q361.1563,16.6875 361.7188,16.9844 L361.7188,19.7031 Q361.0938,19.125 360.5,18.8594 Q359.9063,18.5781 359.2813,18.5781 Q357.9375,18.5781 357.25,19.6563 Q356.5625,20.7188 356.5625,22.8125 Q356.5625,24.9063 357.25,25.9844 Q357.9375,27.0469 359.2813,27.0469 Q359.9063,27.0469 360.5,26.7813 Q361.0938,26.5 361.7188,25.9219 L361.7188,28.6406 Z " fill="#000000"/><text fill="#000000" font-family="sans-serif" font-size="14" lengthAdjust="spacing" textLength="57" x="379.25" y="27.8467">Negozio</text><line style="stroke:#181818;stroke-width:0.5;" x1="281" x2="502" y1="39" y2="39"/><text fill="#000000" font-family="sans-serif" font-size="14" lengthAdjust="spacing" textLength="92" x="286" y="55.9951">nome : string</text><text fill="#000000" font-family="sans-serif" font-size="14" lengthAdjust="spacing" textLength="109" x="286" y="72.292">indirizzo : string</text><text fill="#000000" font-family="sans-serif" font-size="14" lengthAdjust="spacing" textLength="124" x="286" y="88.5889">animali : Animale[]</text><text fill="#000000" font-family="sans-serif" font-size="14" lengthAdjust="spacing" textLength="177" x="286" y="104.8857">animaliVenduti : Animale[]</text><text fill="#000000" font-family="sans-serif" font-size="14" lengthAdjust="spacing" textLength="111" x="286" y="121.1826">clienti : Cliente[]</text><line style="stroke:#181818;stroke-width:0.5;" x1="281" x2="502" y1="128.4844" y2="128.4844"/><text fill="#000000" font-family="sans-serif" font-size="14" lengthAdjust="spacing" textLength="158" x="286" y="145.4795">getAnimali() : Animale[]</text><text fill="#000000" font-family="sans-serif" font-size="14" lengthAdjust="spacing" textLength="211" x="286" y="161.7764">getAnimaliVenduti() : Animale[]</text><text fill="#000000" font-family="sans-serif" font-size="14" lengthAdjust="spacing" textLength="146" x="286" y="178.0732">getClienti() : Cliente[]</text></g><!--MD5=[20e21c2aea1886473443b44ed7fa5d0a]
class Animale--><g id="elem_Animale"><rect codeLine="12" fill="#F1F1F1" height="129.4844" id="Animale" rx="2.5" ry="2.5" style="stroke:#181818;stroke-width:0.5;" width="154" x="200.5" y="262"/><ellipse cx="246.25" cy="278" fill="#ADD1B2" rx="11" ry="11" style="stroke:#181818;stroke-width:1.0;"/><path d="M249.2188,283.6406 Q248.6406,283.9375 248,284.0781 Q247.3594,284.2344 246.6563,284.2344 Q244.1563,284.2344 242.8281,282.5938 Q241.5156,280.9375 241.5156,277.8125 Q241.5156,274.6875 242.8281,273.0313 Q244.1563,271.375 246.6563,271.375 Q247.3594,271.375 248,271.5313 Q248.6563,271.6875 249.2188,271.9844 L249.2188,274.7031 Q248.5938,274.125 248,273.8594 Q247.4063,273.5781 246.7813,273.5781 Q245.4375,273.5781 244.75,274.6563 Q244.0625,275.7188 244.0625,277.8125 Q244.0625,279.9063 244.75,280.9844 Q245.4375,282.0469 246.7813,282.0469 Q247.4063,282.0469 248,281.7813 Q248.5938,281.5 249.2188,280.9219 L249.2188,283.6406 Z " fill="#000000"/><text fill="#000000" font-family="sans-serif" font-size="14" lengthAdjust="spacing" textLength="54" x="266.75" y="282.8467">Animale</text><line style="stroke:#181818;stroke-width:0.5;" x1="201.5" x2="353.5" y1="294" y2="294"/><text fill="#000000" font-family="sans-serif" font-size="14" lengthAdjust="spacing" textLength="92" x="206.5" y="310.9951">nome : string</text><text fill="#000000" font-family="sans-serif" font-size="14" lengthAdjust="spacing" textLength="140" x="206.5" y="327.292">dataDiNascita : Date</text><text fill="#000000" font-family="sans-serif" font-size="14" lengthAdjust="spacing" textLength="142" x="206.5" y="343.5889">prezzoVendita : float</text><text fill="#000000" font-family="sans-serif" font-size="14" lengthAdjust="spacing" textLength="107" x="206.5" y="359.8857">cliente : Cliente</text><line style="stroke:#181818;stroke-width:0.5;" x1="201.5" x2="353.5" y1="367.1875" y2="367.1875"/><text fill="#000000" font-family="sans-serif" font-size="14" lengthAdjust="spacing" textLength="142" x="206.5" y="384.1826">getCliente() : Cliente</text></g><!--MD5=[20a748d5ee336a9a91751b0a3d4f0beb]
class Cliente--><g id="elem_Cliente"><rect codeLine="20" fill="#F1F1F1" height="129.4844" id="Cliente" rx="2.5" ry="2.5" style="stroke:#181818;stroke-width:0.5;" width="179" x="7" y="31.5"/><ellipse cx="68.25" cy="47.5" fill="#ADD1B2" rx="11" ry="11" style="stroke:#181818;stroke-width:1.0;"/><path d="M71.2188,53.1406 Q70.6406,53.4375 70,53.5781 Q69.3594,53.7344 68.6563,53.7344 Q66.1563,53.7344 64.8281,52.0938 Q63.5156,50.4375 63.5156,47.3125 Q63.5156,44.1875 64.8281,42.5313 Q66.1563,40.875 68.6563,40.875 Q69.3594,40.875 70,41.0313 Q70.6563,41.1875 71.2188,41.4844 L71.2188,44.2031 Q70.5938,43.625 70,43.3594 Q69.4063,43.0781 68.7813,43.0781 Q67.4375,43.0781 66.75,44.1563 Q66.0625,45.2188 66.0625,47.3125 Q66.0625,49.4063 66.75,50.4844 Q67.4375,51.5469 68.7813,51.5469 Q69.4063,51.5469 70,51.2813 Q70.5938,51 71.2188,50.4219 L71.2188,53.1406 Z " fill="#000000"/><text fill="#000000" font-family="sans-serif" font-size="14" lengthAdjust="spacing" textLength="48" x="88.75" y="52.3467">Cliente</text><line style="stroke:#181818;stroke-width:0.5;" x1="8" x2="185" y1="63.5" y2="63.5"/><text fill="#000000" font-family="sans-serif" font-size="14" lengthAdjust="spacing" textLength="92" x="13" y="80.4951">nome : string</text><text fill="#000000" font-family="sans-serif" font-size="14" lengthAdjust="spacing" textLength="109" x="13" y="96.792">indirizzo : string</text><text fill="#000000" font-family="sans-serif" font-size="14" lengthAdjust="spacing" textLength="167" x="13" y="113.0889">numeroTelefono : string</text><text fill="#000000" font-family="sans-serif" font-size="14" lengthAdjust="spacing" textLength="124" x="13" y="129.3857">animali : Animale[]</text><line style="stroke:#181818;stroke-width:0.5;" x1="8" x2="185" y1="136.6875" y2="136.6875"/><text fill="#000000" font-family="sans-serif" font-size="14" lengthAdjust="spacing" textLength="158" x="13" y="153.6826">getAnimali() : Animale[]</text></g><!--MD5=[b7f8a59cdc50f9577530c650a56c506b]
class Cane--><g id="elem_Cane"><rect codeLine="28" fill="#F1F1F1" height="80.5938" id="Cane" rx="2.5" ry="2.5" style="stroke:#181818;stroke-width:0.5;" width="101" x="73" y="452"/><ellipse cx="102.85" cy="468" fill="#ADD1B2" rx="11" ry="11" style="stroke:#181818;stroke-width:1.0;"/><path d="M105.8188,473.6406 Q105.2406,473.9375 104.6,474.0781 Q103.9594,474.2344 103.2563,474.2344 Q100.7563,474.2344 99.4281,472.5938 Q98.1156,470.9375 98.1156,467.8125 Q98.1156,464.6875 99.4281,463.0313 Q100.7563,461.375 103.2563,461.375 Q103.9594,461.375 104.6,461.5313 Q105.2563,461.6875 105.8188,461.9844 L105.8188,464.7031 Q105.1938,464.125 104.6,463.8594 Q104.0063,463.5781 103.3813,463.5781 Q102.0375,463.5781 101.35,464.6563 Q100.6625,465.7188 100.6625,467.8125 Q100.6625,469.9063 101.35,470.9844 Q102.0375,472.0469 103.3813,472.0469 Q104.0063,472.0469 104.6,471.7813 Q105.1938,471.5 105.8188,470.9219 L105.8188,473.6406 Z " fill="#000000"/><text fill="#000000" font-family="sans-serif" font-size="14" lengthAdjust="spacing" textLength="36" x="120.15" y="472.8467">Cane</text><line style="stroke:#181818;stroke-width:0.5;" x1="74" x2="173" y1="484" y2="484"/><text fill="#000000" font-family="sans-serif" font-size="14" lengthAdjust="spacing" textLength="89" x="79" y="500.9951">razza : string</text><text fill="#000000" font-family="sans-serif" font-size="14" lengthAdjust="spacing" textLength="77" x="79" y="517.292">peso : float</text><line style="stroke:#181818;stroke-width:0.5;" x1="74" x2="173" y1="524.5938" y2="524.5938"/></g><!--MD5=[de674ab99db0c56b428695deeb8c71da]
class Gatto--><g id="elem_Gatto"><rect codeLine="33" fill="#F1F1F1" height="64.2969" id="Gatto" rx="2.5" ry="2.5" style="stroke:#181818;stroke-width:0.5;" width="137" x="209" y="460.5"/><ellipse cx="254.25" cy="476.5" fill="#ADD1B2" rx="11" ry="11" style="stroke:#181818;stroke-width:1.0;"/><path d="M257.2188,482.1406 Q256.6406,482.4375 256,482.5781 Q255.3594,482.7344 254.6563,482.7344 Q252.1563,482.7344 250.8281,481.0938 Q249.5156,479.4375 249.5156,476.3125 Q249.5156,473.1875 250.8281,471.5313 Q252.1563,469.875 254.6563,469.875 Q255.3594,469.875 256,470.0313 Q256.6563,470.1875 257.2188,470.4844 L257.2188,473.2031 Q256.5938,472.625 256,472.3594 Q255.4063,472.0781 254.7813,472.0781 Q253.4375,472.0781 252.75,473.1563 Q252.0625,474.2188 252.0625,476.3125 Q252.0625,478.4063 252.75,479.4844 Q253.4375,480.5469 254.7813,480.5469 Q255.4063,480.5469 256,480.2813 Q256.5938,480 257.2188,479.4219 L257.2188,482.1406 Z " fill="#000000"/><text fill="#000000" font-family="sans-serif" font-size="14" lengthAdjust="spacing" textLength="38" x="274.75" y="481.3467">Gatto</text><line style="stroke:#181818;stroke-width:0.5;" x1="210" x2="345" y1="492.5" y2="492.5"/><text fill="#000000" font-family="sans-serif" font-size="14" lengthAdjust="spacing" textLength="125" x="215" y="509.4951">colorePelo : string</text><line style="stroke:#181818;stroke-width:0.5;" x1="210" x2="345" y1="516.7969" y2="516.7969"/></g><!--MD5=[341d53f803b60e1dcdd42c590d933a0f]
class Uccello--><g id="elem_Uccello"><rect codeLine="37" fill="#F1F1F1" height="64.2969" id="Uccello" rx="2.5" ry="2.5" style="stroke:#181818;stroke-width:0.5;" width="90" x="381.5" y="460.5"/><ellipse cx="400.1" cy="476.5" fill="#ADD1B2" rx="11" ry="11" style="stroke:#181818;stroke-width:1.0;"/><path d="M403.0688,482.1406 Q402.4906,482.4375 401.85,482.5781 Q401.2094,482.7344 400.5063,482.7344 Q398.0063,482.7344 396.6781,481.0938 Q395.3656,479.4375 395.3656,476.3125 Q395.3656,473.1875 396.6781,471.5313 Q398.0063,469.875 400.5063,469.875 Q401.2094,469.875 401.85,470.0313 Q402.5063,470.1875 403.0688,470.4844 L403.0688,473.2031 Q402.4438,472.625 401.85,472.3594 Q401.2563,472.0781 400.6313,472.0781 Q399.2875,472.0781 398.6,473.1563 Q397.9125,474.2188 397.9125,476.3125 Q397.9125,478.4063 398.6,479.4844 Q399.2875,480.5469 400.6313,480.5469 Q401.2563,480.5469 401.85,480.2813 Q402.4438,480 403.0688,479.4219 L403.0688,482.1406 Z " fill="#000000"/><text fill="#000000" font-family="sans-serif" font-size="14" lengthAdjust="spacing" textLength="50" x="414.9" y="481.3467">Uccello</text><line style="stroke:#181818;stroke-width:0.5;" x1="382.5" x2="470.5" y1="492.5" y2="492.5"/><text fill="#000000" font-family="sans-serif" font-size="14" lengthAdjust="spacing" textLength="78" x="387.5" y="509.4951">tipo : string</text><line style="stroke:#181818;stroke-width:0.5;" x1="382.5" x2="470.5" y1="516.7969" y2="516.7969"/></g><!--MD5=[f767c6cbc1521ffb3a8e9a97c09726b2]
link Cliente to Negozio--><g id="link_Cliente_Negozio"><path codeLine="41" d="M186.21,96 C215.71,96 248.86,96 279.79,96 " fill="none" id="Cliente-Negozio" style="stroke:#181818;stroke-width:1.0;"/><text fill="#000000" font-family="sans-serif" font-size="13" lengthAdjust="spacing" textLength="57" x="204.5" y="89.0669">possiede</text><text fill="#000000" font-family="sans-serif" font-size="13" lengthAdjust="spacing" textLength="26" x="194.0737" y="108.6277">1..N</text><text fill="#000000" font-family="sans-serif" font-size="13" lengthAdjust="spacing" textLength="24" x="247.8648" y="108.5396">1..1</text></g><!--MD5=[7c9765cf06d5892e25737a693865a40c]
link Negozio to Animale--><g id="link_Negozio_Animale"><path codeLine="42" d="M291.05,185.19 C284.48,194.62 278.78,204.6 274.5,215 C268.51,229.55 266.66,246.12 266.92,261.92 " fill="none" id="Negozio-Animale" style="stroke:#181818;stroke-width:1.0;"/><text fill="#000000" font-family="sans-serif" font-size="13" lengthAdjust="spacing" textLength="72" x="275.5" y="228.0669">ha venduto</text><text fill="#000000" font-family="sans-serif" font-size="13" lengthAdjust="spacing" textLength="24" x="257.3863" y="205.5558">1..1</text><text fill="#000000" font-family="sans-serif" font-size="13" lengthAdjust="spacing" textLength="26" x="238.3409" y="251.0839">1..N</text></g><!--MD5=[017a2371ea009be6a4e484a9c0bfd480]
link Animale to Negozio--><g id="link_Animale_Negozio"><path codeLine="43" d="M333.85,261.88 C340.76,252.27 347.23,242.16 352.5,232 C360.08,217.38 366.38,201.09 371.54,185.02 " fill="none" id="Animale-Negozio" style="stroke:#181818;stroke-width:1.0;"/><text fill="#000000" font-family="sans-serif" font-size="13" lengthAdjust="spacing" textLength="39" x="360.5" y="228.0669">vende</text><text fill="#000000" font-family="sans-serif" font-size="13" lengthAdjust="spacing" textLength="26" x="312.5914" y="251.0395">1..N</text><text fill="#000000" font-family="sans-serif" font-size="13" lengthAdjust="spacing" textLength="24" x="344.7934" y="205.3712">1..1</text></g><!--MD5=[7c7974215d0664027ffae61f0f816053]
link Cliente to Animale--><g id="link_Cliente_Animale"><path codeLine="44" d="M146.92,160.65 C171.92,192.21 202.03,230.23 227.04,261.8 " fill="none" id="Cliente-Animale" style="stroke:#181818;stroke-width:1.0;"/><text fill="#000000" font-family="sans-serif" font-size="13" lengthAdjust="spacing" textLength="54" x="204.5" y="228.0669">acquista</text><text fill="#000000" font-family="sans-serif" font-size="13" lengthAdjust="spacing" textLength="24" x="127.3623" y="181.0389">1..1</text><text fill="#000000" font-family="sans-serif" font-size="13" lengthAdjust="spacing" textLength="26" x="194.0991" y="250.9508">0..N</text></g><!--MD5=[db4f2f49a05fd185ed45f6b2640b7650]
reverse link Animale to Cane--><g id="link_Animale_Cane"><path codeLine="45" d="M203.46,406.34 C188.68,422.08 173.76,437.98 160.87,451.71 " fill="none" id="Animale-backto-Cane" style="stroke:#181818;stroke-width:1.0;"/><polygon fill="none" points="198.73,401.16,217.52,391.38,208.93,410.75,198.73,401.16" style="stroke:#181818;stroke-width:1.0;"/></g><!--MD5=[2bc4630c7bd75dc8429ce48811f7d7bf]
reverse link Animale to Gatto--><g id="link_Animale_Gatto"><path codeLine="46" d="M277.5,411.44 C277.5,428.98 277.5,446.41 277.5,460.5 " fill="none" id="Animale-backto-Gatto" style="stroke:#181818;stroke-width:1.0;"/><polygon fill="none" points="270.5,411.38,277.5,391.38,284.5,411.38,270.5,411.38" style="stroke:#181818;stroke-width:1.0;"/></g><!--MD5=[f071d3e9927fd8417ef0727b8d0b163d]
reverse link Animale to Uccello--><g id="link_Animale_Uccello"><path codeLine="47" d="M349.11,406.32 C366.59,425.56 384.28,445.03 398.33,460.5 " fill="none" id="Animale-backto-Uccello" style="stroke:#181818;stroke-width:1.0;"/><polygon fill="none" points="343.8,410.89,335.53,391.38,354.16,401.47,343.8,410.89" style="stroke:#181818;stroke-width:1.0;"/></g><!--MD5=[a8f315473ead46985360c9ba9da741a4]
@startuml
class Negozio{
  nome : string
  indirizzo : string
  animali : Animale[]
  animaliVenduti : Animale[]
  clienti : Cliente[]
  getAnimali() : Animale[]
  getAnimaliVenduti() : Animale[]
  getClienti() : Cliente[]
}

class Animale{
  nome : string
  dataDiNascita : Date
  prezzoVendita : float
  cliente : Cliente
  getCliente() : Cliente
}

class Cliente{
  nome : string
  indirizzo : string
  numeroTelefono : string
  animali : Animale[]
  getAnimali() : Animale[]
}

class Cane{
  razza : string
  peso : float
}

class Gatto{
  colorePelo : string
}

class Uccello{
  tipo : string
}

Negozio "1..1" -left- "1..N" Cliente : possiede
Negozio "1..1"- -"1..N" Animale : ha venduto
Animale "1..N"- -"1..1" Negozio : vende
Cliente "1..1"- -"0..N" Animale : acquista
Animale <|- - Cane
Animale <|- - Gatto
Animale <|- - Uccello
@enduml

PlantUML version 1.2022.7(Mon Aug 22 17:01:30 UTC 2022)
(GPL source distribution)
Java Runtime: OpenJDK Runtime Environment
JVM: OpenJDK 64-Bit Server VM
Default Encoding: UTF-8
Language: en
Country: null
--></g></svg>